HIERARCHY
ROOT Hips
{
    OFFSET 0.000000 0.000000 0.000000
    CHANNELS 6 Xposition Yposition Zposition Zrotation Xrotation Yrotation
        JOINT Spine1
        {
            OFFSET -0.000000 23.269398 0.000000
            CHANNELS 3 Zrotation Xrotation Yrotation
            JOINT Neck
            {
                OFFSET -0.000000 18.032967 0.000000
                CHANNELS 3 Zrotation Xrotation Yrotation
                JOINT Head
                {
                    OFFSET -0.000000 13.091072 1.689171
                    CHANNELS 3 Zrotation Xrotation Yrotation
                    End Site
                    {
                        OFFSET -0.000000 16.891708 0.000000
                    }
                }
            }
            JOINT LeftShoulder
            {
                OFFSET 3.336773 14.146137 -0.012206
                CHANNELS 3 Zrotation Xrotation Yrotation
                JOINT LeftArm
                {
                    OFFSET 11.765518 0.000000 0.000000
                    CHANNELS 3 Zrotation Xrotation Yrotation
                    JOINT LeftForeArm
                    {
                        OFFSET 25.163450 0.000000 0.000000
                        CHANNELS 3 Zrotation Xrotation Yrotation
                        JOINT LeftHand
                        {
                            OFFSET 21.783554 0.000000 0.000000
                            CHANNELS 3 Zrotation Xrotation Yrotation
                            End Site
                            {
                                OFFSET 12.668781 0.000000 0.000000
                            }
                        }
                    }
                }
            }
            JOINT RightShoulder
            {
                OFFSET -3.409204 14.146137 -0.012206
                CHANNELS 3 Zrotation Xrotation Yrotation
                JOINT RightArm
                {
                    OFFSET -11.765518 0.000000 0.000000
                    CHANNELS 3 Zrotation Xrotation Yrotation
                    JOINT RightForeArm
                    {
                        OFFSET -25.163450 0.000000 0.000000
                        CHANNELS 3 Zrotation Xrotation Yrotation
                        JOINT RightHand
                        {
                            OFFSET -21.783554 0.000000 0.000000
                            CHANNELS 3 Zrotation Xrotation Yrotation
                            End Site
                            {
                                OFFSET -12.668781 0.000000 0.000000
                            }
                        }
                    }
                }
            }
        }
        JOINT LeftUpLeg
    {
        OFFSET 8.445854 0.000000 0.000000
        CHANNELS 3 Zrotation Xrotation Yrotation
        JOINT LeftLeg
        {
            OFFSET -0.000000 -40.674755 0.000000
            CHANNELS 3 Zrotation Xrotation Yrotation
            JOINT LeftFoot
            {
                OFFSET -0.000000 -37.111794 0.000000
                CHANNELS 3 Zrotation Xrotation Yrotation
                JOINT LeftToeBase
                {
                    OFFSET -0.000000 -5.489805 12.668781
                    CHANNELS 3 Zrotation Xrotation Yrotation
                    End Site
                    {
                        OFFSET -0.000000 0.000000 3.378341
                    }
                }
            }
        }
    }
    JOINT RightUpLeg
    {
        OFFSET -8.445854 0.000000 0.000000
        CHANNELS 3 Zrotation Xrotation Yrotation
        JOINT RightLeg
        {
            OFFSET -0.000000 -40.674755 0.000000
            CHANNELS 3 Zrotation Xrotation Yrotation
            JOINT RightFoot
            {
                OFFSET -0.000000 -37.111794 0.000000
                CHANNELS 3 Zrotation Xrotation Yrotation
                JOINT RightToeBase
                {
                    OFFSET -0.000000 -5.489805 12.668781
                    CHANNELS 3 Zrotation Xrotation Yrotation
                    End Site
                    {
                        OFFSET -0.000000 0.000000 3.378341
                    }
                }
            }
        }
    }
}
MOTION
Frames:    6
Frame Time:    0.008333
5.606618    82.344200    18.825537    -4.417728    -7.939937    -38.278309    -2.762811    17.912867    -1.710666    -0.292259    2.574213    2.212391    -2.104897    -14.024065    2.254295    0.213736    4.641632    6.862677    -43.454342    15.430710    -30.261841    6.151705    -4.637479    -8.389732    11.322841    -4.768382    -5.875556    -3.161229    8.911947    -3.188085    47.521545    27.678682    35.961224    -0.097255    -7.061933    30.072813    -8.461317    -7.077668    0.567443    0.345842    1.902354    -9.354268    -0.247827    17.731543    5.338971    -2.815733    -11.388881    18.125738    -0.425991    -0.141793    0.884602    -1.776010    -14.355136    14.647152    -4.703711    34.988144    16.733137    20.761927    -12.768896    6.788827    3.284348    -7.804683    5.943909    
5.617825    82.382935    18.763489    -4.439296    -7.897595    -38.318958    -2.594095    18.094746    -1.910018    -0.453925    2.578791    3.139622    -2.455010    -14.498729    3.179041    0.340125    4.153641    6.865093    -43.566875    13.835814    -30.680464    6.478467    -5.252895    -9.490486    12.749222    -5.336760    -5.568199    -3.249157    8.834694    -3.177922    47.566395    27.654243    36.018833    -0.576061    -7.163218    31.123384    -7.973734    -7.060517    0.816855    0.339846    2.003605    -9.237555    -0.162575    17.307285    5.262782    -2.658812    -11.009129    18.628181    -0.420746    -0.391515    0.337577    -1.664189    -14.456827    14.966689    -4.675689    35.326458    17.186132    20.878380    -13.029250    6.850398    3.031851    -7.055857    4.907873    
5.614501    82.427727    18.697939    -4.437836    -7.852442    -38.306335    -2.370759    18.008795    -2.070752    -0.716237    2.867424    3.872692    -2.525862    -15.040659    3.881660    0.392460    3.895422    6.726066    -43.768791    12.251510    -31.028393    6.900741    -5.629710    -10.630798    14.052378    -5.685653    -5.667006    -3.290311    9.021742    -3.328371    47.388348    27.658133    36.282806    -0.993890    -7.194721    32.256886    -7.533659    -6.975467    1.010103    0.333171    2.045450    -9.433354    -0.073314    17.088053    5.459479    -2.638167    -10.940395    18.600292    -0.382298    -0.330651    0.360057    -1.574551    -14.512823    15.429558    -4.465808    35.633247    17.399611    21.194952    -12.863624    6.699771    2.519028    -5.389860    2.662536    
5.594415    82.475792    18.633219    -4.439165    -7.796935    -38.224659    -2.108948    17.954237    -2.305108    -0.985228    3.102364    4.760695    -2.749269    -15.499233    4.742439    0.398292    3.567917    6.618119    -44.009563    10.756081    -31.320551    7.202661    -6.112998    -12.197248    15.747172    -6.078607    -5.318236    -3.367268    9.074916    -3.396357    47.112610    27.720804    36.539768    -1.395816    -7.256108    33.595776    -7.359158    -6.919838    1.284051    0.425900    2.154937    -9.534304    -0.071025    16.697447    5.439100    -2.541465    -10.790923    18.592440    -0.311983    -0.239331    0.358233    -1.464192    -14.494903    15.853490    -4.327880    35.907833    17.594673    21.287149    -13.091248    6.715479    2.963289    -6.923864    4.829224    
5.515066    82.529846    18.542217    -4.508209    -7.757993    -38.078701    -1.875207    18.021803    -2.489400    -1.621961    3.067204    6.379981    -2.584974    -15.175457    6.322324    0.513415    3.232505    6.423054    -44.419823    9.143986    -31.598665    7.650036    -5.936034    -13.754832    17.182341    -5.842906    -5.492602    -3.377453    8.766574    -3.138969    46.965691    27.797234    36.282032    -1.787601    -7.340704    35.080975    -6.871154    -6.858440    1.317993    0.600028    2.295634    -9.659129    -0.036393    16.363935    5.399344    -2.525510    -10.679798    18.545870    -0.186124    -0.103398    0.296417    -1.208051    -14.283656    16.253906    -4.335628    36.047836    17.736765    21.199242    -13.329203    6.495234    3.011358    -7.449668    6.066412    
5.433504    82.543411    18.535250    -4.413522    -8.044160    -38.023167    -1.959470    18.131632    -2.513229    -1.835602    3.293564    7.140001    -2.723055    -15.561222    7.059329    0.509189    3.079962    6.389041    -44.648987    7.855660    -32.023769    8.179632    -5.488908    -15.537045    18.961882    -5.277024    -5.414968    -3.413846    8.784716    -3.179230    46.402660    27.993341    36.758389    -2.459426    -6.687484    36.181946    -8.196793    -5.969948    1.140006    0.379105    2.691476    -9.452575    0.151324    15.955863    4.960161    -2.469482    -10.504850    18.647724    -0.202099    -0.078302    0.393972    -1.462666    -14.049105    16.607821    -3.909159    36.641777    18.100069    20.722214    -13.597105    6.583214    3.035931    -7.058820    4.899425    
